<?xml version="1.0" standalone="no"?>
<!DOCTYPE svg PUBLIC "-//W3C//DTD SVG 20010904//EN"
 "http://www.w3.org/TR/2001/REC-SVG-20010904/DTD/svg10.dtd">
<svg version="1.0" xmlns="http://www.w3.org/2000/svg"
 width="1342.000000pt" height="1536.000000pt" viewBox="0 0 1342.000000 1536.000000"
 preserveAspectRatio="xMidYMid meet">

<g transform="translate(0.000000,1536.000000) scale(0.100000,-0.100000)"
fill="#000000" stroke="none">
<path d="M6164 15350 c-5 -5 -108 -10 -239 -11 -220 -2 -419 -10 -611 -23
-165 -12 -358 -26 -494 -37 -74 -6 -151 -13 -170 -14 -113 -8 -819 -101 -880
-115 -29 -7 -183 -32 -350 -56 -19 -3 -57 -12 -84 -20 -27 -8 -60 -14 -73 -14
-14 0 -45 -6 -71 -14 -26 -7 -109 -28 -184 -46 -156 -37 -186 -52 -225 -111
-24 -37 -28 -52 -28 -114 1 -80 23 -127 78 -169 72 -53 127 -53 384 3 51 11
114 23 140 26 26 3 59 8 73 11 14 3 41 8 60 10 19 2 53 8 75 14 63 15 343 68
420 80 167 25 356 49 425 55 41 3 93 8 115 10 22 3 72 7 110 10 39 3 88 8 110
10 22 3 108 12 190 20 83 8 168 17 190 20 99 11 191 18 400 30 50 3 173 10
275 17 314 20 1894 15 1962 -6 7 -3 76 -7 153 -11 137 -6 331 -20 410 -30 56
-6 235 -23 330 -30 44 -4 163 -15 265 -26 102 -10 210 -21 240 -24 87 -9 317
-43 410 -60 288 -54 361 -67 505 -90 131 -22 354 -70 630 -135 22 -5 82 -19
134 -31 112 -25 751 -238 901 -299 102 -43 150 -66 374 -185 314 -166 500
-348 531 -517 7 -39 -16 -136 -38 -160 -6 -7 -23 -34 -36 -60 -21 -43 -112
-141 -186 -201 -86 -70 -274 -180 -377 -221 -25 -10 -57 -24 -70 -32 -25 -15
-37 -20 -153 -69 -44 -19 -89 -36 -100 -38 -11 -1 -25 -6 -32 -10 -48 -30
-373 -142 -430 -148 -15 -2 -32 -6 -38 -10 -10 -6 -155 -51 -265 -82 -30 -9
-98 -25 -150 -37 -52 -11 -133 -30 -180 -41 -47 -12 -112 -27 -145 -34 -237
-53 -311 -68 -390 -80 -49 -8 -100 -17 -113 -20 -13 -3 -67 -12 -120 -20 -53
-8 -146 -24 -207 -35 -60 -11 -155 -27 -210 -35 -55 -8 -131 -19 -170 -25
-113 -16 -330 -40 -465 -50 -69 -5 -170 -14 -225 -20 -218 -24 -689 -56 -1025
-70 -129 -5 -289 -12 -355 -15 -349 -17 -1213 5 -1636 40 -31 3 -143 12 -250
20 -372 29 -784 67 -922 85 -241 30 -395 53 -492 70 -60 11 -168 29 -240 40
-71 11 -150 24 -175 29 -25 5 -112 21 -195 36 -82 15 -158 31 -167 36 -10 5
-26 9 -36 9 -10 0 -52 9 -93 20 -41 12 -135 34 -209 50 -127 28 -253 61 -415
110 -38 12 -92 27 -120 35 -76 21 -233 73 -274 91 -20 9 -52 23 -71 31 -19 8
-44 18 -55 23 -11 5 -36 12 -55 16 -19 3 -56 17 -82 30 -26 13 -53 24 -60 24
-24 0 -364 177 -403 209 -11 9 -54 39 -95 66 -119 80 -209 176 -265 283 -30
57 -37 80 -37 133 -2 91 31 150 151 272 120 123 217 186 566 366 63 32 196 91
206 91 6 0 29 8 52 19 23 10 74 31 112 45 39 15 91 36 117 47 26 10 53 19 60
19 35 0 121 55 153 98 32 41 35 51 35 113 0 86 -7 102 -69 166 l-50 52 -88 -2
c-60 -2 -98 -8 -118 -19 -39 -21 -123 -53 -205 -77 -64 -19 -188 -68 -226 -90
-10 -5 -40 -19 -66 -31 -26 -11 -86 -40 -135 -63 -261 -130 -399 -216 -581
-364 -117 -96 -231 -234 -299 -364 -76 -145 -89 -307 -99 -1291 -4 -333 -10
-595 -15 -592 -5 3 -9 -321 -9 -738 0 -409 -3 -1664 -5 -2790 -4 -1334 -2
-2048 4 -2048 6 0 52 36 102 81 51 45 138 111 193 148 56 37 120 80 143 97
l42 29 1 1182 c0 726 4 1184 9 1188 6 3 25 -7 43 -23 68 -58 420 -220 597
-276 63 -20 124 -42 135 -49 50 -32 382 -129 536 -156 120 -22 230 75 230 205
0 49 -30 123 -64 157 -33 33 -94 57 -206 82 -36 9 -74 19 -85 25 -29 13 -163
59 -210 71 -150 38 -513 187 -620 254 -130 81 -203 136 -250 187 -103 110
-107 151 -26 243 48 55 203 175 226 175 6 0 29 13 51 28 21 16 73 43 114 61
41 18 93 41 115 51 104 47 234 96 325 123 30 9 100 30 155 47 56 16 106 30
112 30 6 0 16 6 22 14 7 8 31 18 54 21 23 4 81 18 130 30 48 13 90 24 92 24
11 0 127 25 260 56 239 57 357 83 430 94 129 19 439 72 485 82 25 6 113 21
195 34 142 22 224 32 465 55 133 14 234 25 440 49 139 17 359 39 657 67 71 6
157 46 185 84 22 31 44 156 34 195 -4 17 -29 51 -56 77 -39 37 -59 48 -105 58
-32 7 -81 9 -109 6 -28 -3 -152 -14 -276 -26 -124 -11 -324 -29 -445 -41 -121
-11 -240 -21 -265 -23 -82 -6 -224 -24 -317 -40 -51 -9 -220 -34 -375 -56
-355 -49 -450 -65 -563 -90 -49 -11 -202 -42 -340 -70 -137 -27 -266 -54 -285
-60 -19 -5 -100 -28 -180 -51 -80 -23 -201 -56 -270 -74 -181 -49 -245 -69
-261 -81 -8 -7 -30 -15 -49 -19 -19 -4 -58 -18 -87 -31 -28 -13 -58 -24 -65
-24 -24 0 -113 -38 -275 -119 -90 -45 -165 -81 -168 -81 -3 0 -32 -19 -66 -41
-40 -28 -64 -38 -70 -32 -11 11 -18 1269 -12 2081 3 333 6 432 16 432 6 0 35
-17 62 -38 101 -77 151 -108 281 -177 26 -14 55 -32 64 -39 14 -13 163 -86
175 -86 3 0 54 -23 113 -51 59 -28 188 -78 287 -111 99 -32 194 -65 210 -72
44 -20 141 -51 215 -71 36 -9 144 -39 240 -66 199 -55 305 -80 505 -115 77
-14 148 -27 157 -30 9 -3 27 -7 40 -9 13 -2 61 -13 108 -24 154 -36 405 -78
611 -101 46 -5 122 -16 169 -25 154 -27 483 -68 765 -94 143 -14 468 -36 478
-33 4 1 87 -2 185 -8 97 -5 249 -13 337 -17 203 -10 1580 -10 1825 -1 480 20
669 28 715 33 28 3 113 10 190 15 167 11 324 26 420 40 39 5 153 21 255 35
102 14 226 32 275 39 50 8 140 20 200 26 109 12 486 75 515 87 20 8 262 60
370 79 172 32 246 49 430 99 74 21 162 44 195 52 83 19 308 93 320 104 5 5 15
9 23 9 7 0 41 11 75 24 34 13 94 33 132 45 73 23 211 80 330 136 39 18 95 45
125 59 30 14 66 34 80 44 14 11 75 47 135 81 61 34 141 85 178 113 37 27 70
48 73 45 7 -7 13 -2134 7 -2349 -3 -112 -8 -158 -16 -158 -7 0 -31 15 -54 34
-23 18 -57 39 -75 46 -31 11 -156 70 -273 127 -27 14 -121 49 -209 79 -87 29
-163 58 -170 63 -6 5 -27 12 -46 16 -19 4 -47 13 -61 21 -15 7 -55 20 -90 27
-62 14 -112 27 -304 82 -96 28 -253 66 -375 92 -41 9 -100 22 -131 29 -30 7
-95 20 -145 28 -86 15 -192 36 -284 57 -25 6 -72 15 -105 19 -33 4 -186 26
-340 48 -154 22 -320 46 -369 52 -50 6 -93 13 -97 15 -6 4 -190 24 -269 29
-19 2 -87 8 -150 15 -315 32 -1101 84 -1197 79 -60 -3 -79 -8 -114 -33 -62
-43 -84 -87 -83 -160 1 -92 30 -148 93 -179 64 -33 128 -42 441 -61 140 -9
329 -25 420 -35 177 -21 489 -54 660 -70 309 -29 487 -53 725 -98 99 -19 204
-37 400 -68 134 -21 598 -121 765 -164 19 -5 82 -21 139 -35 57 -14 109 -29
115 -33 6 -5 61 -24 121 -42 195 -59 338 -108 425 -145 47 -21 105 -45 130
-55 64 -26 111 -50 145 -75 17 -12 38 -25 47 -28 10 -3 57 -33 106 -65 105
-72 192 -175 192 -230 0 -22 -70 -120 -121 -170 -37 -36 -236 -172 -251 -172
-6 0 -31 -11 -57 -25 -92 -49 -308 -139 -421 -174 -104 -33 -380 -119 -439
-136 -139 -42 -160 -53 -191 -108 -52 -90 -38 -208 30 -269 56 -50 120 -63
215 -44 173 36 501 129 507 145 2 4 62 27 133 51 185 61 506 216 630 304 217
153 360 325 421 505 48 145 53 167 55 276 6 362 -4 2568 -12 2609 -7 38 -6 52
3 58 8 5 9 8 2 8 -8 0 -13 131 -17 438 -6 399 -11 493 -37 664 -32 205 -236
462 -520 653 -120 81 -373 229 -413 240 -12 4 -47 20 -77 35 -109 56 -236 113
-315 140 -107 38 -236 86 -257 94 -9 4 -22 9 -30 10 -34 7 -104 29 -113 36 -5
4 -32 13 -60 19 -27 6 -90 23 -140 37 -49 14 -121 34 -160 45 -38 11 -97 27
-129 35 -33 8 -65 18 -70 23 -6 5 -36 12 -66 16 -55 6 -92 14 -285 60 -55 13
-134 30 -175 39 -41 8 -118 24 -170 35 -86 18 -348 60 -475 76 -27 4 -72 10
-100 15 -112 20 -543 76 -655 85 -97 7 -163 13 -285 25 -120 12 -499 37 -680
45 -71 4 -150 8 -175 10 -25 2 -147 5 -272 5 -136 1 -228 5 -228 11 0 6 -202
9 -527 9 -338 -1 -523 -4 -513 -10 12 -8 10 -10 -8 -10 -13 0 -20 4 -17 10 8
13 2 13 -11 0z"/>
<path d="M313 11995 c0 -22 2 -30 4 -17 2 12 2 30 0 40 -3 9 -5 -1 -4 -23z"/>
<path d="M312 11925 c0 -16 2 -22 5 -12 2 9 2 23 0 30 -3 6 -5 -1 -5 -18z"/>
<path d="M311 11874 c0 -11 3 -14 6 -6 3 7 2 16 -1 19 -3 4 -6 -2 -5 -13z"/>
<path d="M7160 10469 c-25 -11 -56 -31 -70 -44 l-25 -24 -707 -3 -707 -3 -201
-200 c-111 -110 -209 -207 -218 -215 -13 -13 -92 -16 -533 -20 -285 -3 -520
-7 -523 -10 -28 -27 -704 -702 -808 -808 l-138 -139 0 -215 0 -216 -34 -22
c-19 -11 -45 -37 -57 -56 l-21 -35 -125 2 -125 2 -160 -159 c-227 -226 -218
-210 -218 -358 l0 -121 -43 -41 c-49 -47 -67 -95 -67 -180 0 -72 26 -133 69
-165 l31 -23 0 -486 c0 -433 2 -488 16 -510 26 -39 676 -690 704 -705 20 -10
137 -13 595 -11 314 1 582 0 598 -2 l27 -4 0 -267 c0 -147 4 -273 10 -281 5
-8 163 -170 352 -360 l343 -345 537 0 538 0 147 148 148 147 128 0 127 0 0
-202 0 -202 400 -401 400 -401 0 -60 c0 -109 75 -176 155 -138 76 36 70 -102
68 1541 -1 811 -5 1482 -8 1493 -3 11 -119 130 -257 265 l-251 245 -471 0
-471 1 -27 38 c-40 59 -124 96 -213 95 -146 -1 -247 -102 -247 -245 0 -111 50
-197 144 -243 101 -51 213 -24 306 73 l48 50 411 1 c302 1 417 -2 435 -10 12
-7 103 -94 201 -194 l177 -181 0 -1198 c0 -659 -3 -1197 -7 -1195 -5 2 -135
132 -290 288 l-283 285 0 116 0 116 55 -28 c110 -55 196 -48 279 23 65 56 89
107 90 188 1 147 -119 253 -270 237 -74 -8 -122 -34 -164 -90 l-35 -47 -270 0
-270 0 -142 -142 -142 -141 -436 -5 -437 -5 -289 289 -289 289 0 268 0 267 31
33 c17 17 110 113 207 212 535 545 654 668 664 691 6 13 15 24 20 24 4 0 8
403 8 896 l0 896 -34 34 -34 34 -224 0 -223 1 -34 45 c-96 131 -321 132 -417
1 -45 -60 -58 -108 -51 -185 8 -79 39 -136 101 -183 l45 -34 1 -481 0 -482
-60 -61 -60 -61 -377 0 c-208 0 -383 4 -390 8 -7 4 -140 135 -297 290 l-284
282 -217 0 -217 0 -39 31 -39 31 0 100 0 101 118 119 118 118 78 0 c75 0 78
-1 114 -36 111 -107 258 -113 360 -14 50 48 65 86 66 165 1 85 -26 143 -91
190 l-41 30 1 168 2 168 245 244 c135 134 323 319 417 410 l173 165 508 0 508
0 219 215 c137 135 227 215 239 216 187 4 1245 2 1244 -3 -2 -4 -119 -124
-261 -266 l-257 -259 2 -768 3 -768 130 -125 c72 -69 148 -138 169 -154 l40
-28 413 0 413 1 50 -40 c64 -50 108 -65 180 -58 107 9 189 71 216 163 30 105
-5 213 -89 273 l-42 31 2 397 c1 219 3 439 3 488 l1 90 110 115 c60 63 180
186 266 273 l157 157 374 0 375 0 81 -83 c44 -46 261 -258 481 -472 220 -215
428 -417 463 -451 l62 -61 2 -239 c0 -131 1 -244 1 -250 0 -9 345 -353 589
-586 17 -17 18 -42 18 -361 0 -189 3 -377 6 -418 l7 -74 -55 -37 c-66 -44 -96
-99 -105 -193 -8 -88 26 -159 103 -216 l54 -40 0 -152 0 -152 -178 -178 -177
-179 -820 1 c-494 0 -832 -4 -850 -9 -20 -7 -182 -163 -473 -454 l-442 -443
-1 -84 c0 -46 0 -540 0 -1098 0 -785 3 -1016 12 -1022 7 -4 55 -6 108 -6 l96
2 5 1051 5 1052 384 391 383 391 624 0 c585 0 625 -1 631 -17 4 -10 7 -120 8
-245 l0 -228 -310 -313 -310 -314 -472 -1 -473 -2 0 43 c0 42 2 44 233 275
l233 232 139 0 138 0 57 -54 c62 -59 103 -76 185 -76 93 0 194 82 224 181 27
89 4 175 -65 241 -51 49 -100 68 -172 68 -78 0 -153 -37 -195 -97 l-31 -43
-190 0 -191 0 -298 -298 -297 -297 0 -967 0 -968 48 0 c26 0 77 -3 115 -7 l67
-6 0 766 0 766 515 3 515 3 366 365 c201 201 372 377 380 392 11 22 14 84 14
313 l0 285 93 0 c87 0 97 2 133 28 46 34 426 427 443 459 7 14 11 89 11 216
l0 194 37 24 c21 13 51 46 68 73 26 42 30 61 33 131 3 68 0 89 -18 128 -20 43
-91 117 -112 117 -4 0 -8 208 -8 463 l0 464 -305 303 -305 304 0 246 0 245
-93 96 c-50 52 -265 264 -477 470 -211 206 -440 429 -508 496 -90 89 -134 125
-161 133 -21 6 -203 10 -454 10 -342 0 -424 -3 -452 -14 -33 -14 -625 -599
-663 -656 -15 -22 -17 -77 -17 -556 l0 -533 -43 -36 c-23 -21 -49 -50 -58 -66
l-15 -29 -371 0 -371 0 -88 93 -89 92 0 670 0 670 243 243 242 242 51 0 c69 0
149 41 188 97 60 86 45 215 -33 293 -71 71 -164 89 -251 49z m-2266 -1926 c37
-50 15 -125 -40 -143 -67 -22 -124 18 -124 87 0 94 109 131 164 56z m461 -944
l-1 -781 -433 -439 -433 -439 -602 0 -601 0 -287 287 -288 288 0 442 0 442 50
51 51 50 175 0 175 0 273 -275 c151 -151 284 -279 297 -284 13 -5 214 -9 447
-9 l423 1 38 -41 c50 -55 111 -82 185 -82 74 0 130 25 184 84 97 105 74 284
-46 361 l-31 20 0 485 -1 485 36 23 c19 13 49 43 66 67 l32 45 145 0 146 0 0
-781z m776 -749 c34 -19 51 -65 39 -109 -12 -47 -37 -70 -82 -77 -64 -11 -124
69 -103 136 14 45 99 74 146 50z m5006 -345 c32 -32 35 -40 30 -73 -7 -42 -55
-92 -88 -92 -28 0 -77 27 -89 49 -20 39 -12 91 19 122 42 41 83 39 128 -6z"/>
<path d="M3020 6955 c-62 -63 -72 -77 -64 -94 9 -20 456 -475 503 -512 22 -17
43 -19 257 -19 l232 0 59 -58 c38 -38 72 -62 99 -70 126 -37 260 15 317 122
31 58 30 183 -1 243 -28 53 -81 96 -144 117 -73 23 -124 20 -193 -13 -55 -26
-115 -79 -115 -102 0 -5 -83 -9 -198 -9 l-197 0 -92 88 c-50 48 -158 153 -240
234 l-149 148 -74 -75z m1242 -445 c27 -27 30 -36 25 -72 -12 -89 -102 -122
-159 -58 -39 42 -38 92 1 131 41 41 91 40 133 -1z"/>
<path d="M7839 10305 c-55 -17 -68 -31 -109 -114 -27 -53 -31 -72 -28 -121 l3
-58 -288 -291 -287 -291 0 -295 0 -294 -23 -13 c-33 -18 -94 -89 -107 -124 -7
-16 -12 -59 -12 -96 0 -53 5 -76 23 -105 45 -76 96 -117 177 -143 39 -12 51
-12 110 4 133 35 200 118 201 249 1 78 -25 132 -94 195 l-55 51 0 238 0 239
249 254 250 255 68 1 c93 1 149 27 196 91 51 70 64 133 43 204 -18 63 -84 145
-133 165 -41 18 -124 17 -184 -1z m-540 -1621 c25 -20 31 -34 31 -64 0 -52 -8
-68 -41 -85 -70 -37 -129 -6 -136 72 -5 46 -3 51 27 76 40 34 80 35 119 1z"/>
<path d="M5952 9851 c-86 -30 -139 -94 -162 -196 -19 -87 29 -198 106 -246
l34 -21 0 -808 0 -809 248 -248 c136 -137 265 -262 287 -279 l40 -29 475 4
476 3 381 -381 c254 -253 391 -383 410 -388 35 -9 938 -9 974 0 25 6 571 546
653 645 l36 44 0 549 0 549 39 24 c59 38 93 105 99 197 4 68 2 82 -23 130 -36
74 -69 105 -134 130 -101 38 -217 8 -287 -73 -75 -90 -86 -212 -26 -304 17
-27 50 -62 72 -78 l40 -30 0 -505 0 -506 -278 -278 -277 -277 -406 0 -405 0
-382 385 -382 385 -493 0 -493 0 -203 204 c-112 112 -208 210 -212 218 -5 7
-9 351 -9 765 l0 752 37 28 c57 42 81 73 99 127 44 131 -38 286 -172 324 -57
16 -100 15 -162 -7z m166 -174 c16 -15 22 -32 22 -62 0 -46 -23 -75 -74 -95
-67 -25 -140 57 -115 129 21 59 115 75 167 28z m3722 -1113 c39 -26 50 -45 50
-86 0 -41 -33 -87 -65 -89 -8 -1 -21 -2 -27 -3 -21 -3 -66 22 -82 46 -23 33
-20 81 7 105 50 46 79 52 117 27z"/>
<path d="M5282 9466 c-54 -18 -109 -59 -134 -102 l-20 -34 -351 0 -350 0 -136
-132 c-75 -73 -184 -182 -243 -243 l-108 -110 0 -410 -1 -410 -49 -39 c-68
-53 -95 -111 -93 -197 3 -145 113 -252 259 -252 151 -1 254 106 254 265 0 76
-23 120 -94 186 l-56 51 0 354 0 355 177 176 178 176 311 0 311 0 11 -25 c6
-13 37 -41 68 -62 56 -37 60 -38 149 -38 86 0 95 2 135 30 113 78 142 249 63
367 -54 81 -185 125 -281 94z m119 -161 c37 -20 52 -57 44 -107 -8 -44 -42
-68 -98 -68 -97 0 -120 130 -32 178 28 16 51 15 86 -3z m-1292 -1440 c38 -33
45 -56 31 -100 -24 -73 -98 -88 -149 -30 -35 40 -38 62 -16 105 29 56 85 66
134 25z"/>
<path d="M8733 9466 c-63 -20 -118 -70 -149 -132 -23 -48 -26 -63 -22 -125 7
-89 40 -139 124 -187 55 -31 64 -33 125 -28 l67 5 127 -124 127 -124 3 -568 2
-568 -81 -82 -81 -83 -174 0 -174 0 41 44 c22 24 45 53 51 65 8 15 12 118 12
342 l0 321 55 51 c73 67 96 112 97 196 0 78 -16 123 -69 181 -56 61 -99 80
-186 80 -115 -1 -177 -37 -227 -134 -24 -45 -31 -71 -31 -115 0 -92 38 -174
100 -218 l40 -28 1 -85 c8 -454 6 -481 -38 -534 l-32 -39 -80 2 c-71 2 -87 -1
-130 -25 -27 -14 -63 -40 -79 -58 -33 -34 -62 -109 -62 -160 0 -45 23 -118 49
-155 33 -46 115 -81 192 -83 78 -1 124 20 189 86 l44 46 255 0 255 0 143 145
143 145 0 658 0 658 -158 157 -159 156 -1 74 c0 54 -6 87 -22 120 -47 100
-181 158 -287 123z m-39 -927 c45 -53 31 -119 -29 -145 -50 -21 -73 -17 -106
15 -61 62 -19 161 69 161 33 0 45 -6 66 -31z"/>
<path d="M13104 8779 c-16 -17 -54 -49 -84 -70 -30 -22 -86 -62 -125 -89 -38
-28 -73 -50 -78 -50 -4 0 -30 -15 -58 -34 -27 -19 -58 -38 -69 -41 -20 -6 -20
-16 -14 -1196 3 -654 3 -1189 0 -1189 -3 0 -38 21 -78 47 -137 88 -310 176
-438 220 -25 9 -52 21 -60 28 -8 7 -33 19 -55 26 -22 7 -45 16 -50 20 -14 10
-141 39 -169 39 -35 0 -108 -35 -138 -67 -48 -51 -71 -109 -64 -160 9 -66 48
-128 101 -159 25 -14 45 -29 45 -34 0 -4 62 -29 138 -55 82 -29 195 -79 282
-125 80 -42 155 -80 167 -84 12 -4 35 -21 50 -37 15 -17 47 -42 70 -55 77 -46
143 -142 143 -208 0 -24 -10 -48 -33 -78 -39 -51 -170 -158 -244 -200 -29 -17
-56 -34 -59 -39 -3 -6 -30 -21 -60 -34 -30 -13 -54 -28 -54 -34 0 -6 -17 -15
-37 -20 -21 -6 -52 -19 -68 -29 -17 -10 -55 -27 -85 -37 -30 -9 -69 -26 -86
-36 -17 -11 -37 -19 -43 -19 -7 0 -31 -9 -54 -19 -82 -37 -173 -69 -257 -91
-47 -12 -89 -26 -95 -30 -5 -4 -34 -13 -62 -20 -29 -6 -53 -15 -53 -20 0 -4
-19 -10 -41 -14 -61 -10 -159 -45 -192 -68 -16 -11 -42 -39 -58 -61 -26 -35
-29 -48 -29 -112 0 -86 20 -123 94 -172 43 -29 56 -33 115 -33 36 0 100 10
141 21 41 12 111 29 155 39 88 20 232 65 249 79 14 10 165 68 226 86 53 16
222 89 265 115 17 10 41 21 55 25 93 28 564 349 583 398 3 7 29 42 59 77 67
79 130 195 172 315 l31 90 3 1613 c2 1341 0 1612 -11 1612 -7 0 -26 -14 -43
-31z"/>
<path d="M10280 7659 c-101 -45 -148 -129 -137 -245 7 -77 22 -106 81 -164
l46 -44 0 -126 0 -127 -276 -279 c-152 -153 -339 -343 -416 -421 l-140 -142
-417 -2 c-229 -1 -437 -4 -463 -7 -47 -4 -51 -7 -240 -199 -106 -107 -223
-219 -259 -248 -84 -68 -114 -124 -113 -210 0 -69 17 -108 71 -161 75 -75 175
-94 268 -50 91 43 130 95 141 189 7 61 -5 112 -41 168 l-23 35 117 122 116
122 779 1 779 0 46 -44 c25 -25 65 -54 88 -66 55 -27 151 -28 210 -1 58 26
126 96 141 146 16 55 15 147 -2 188 -33 79 -131 153 -218 163 -82 10 -203 -49
-247 -121 l-22 -34 -199 -2 c-190 -1 -234 6 -194 28 10 5 178 171 376 368
l358 359 0 185 1 185 45 34 c86 63 115 192 65 293 -53 111 -203 161 -321 107z
m167 -1584 c48 -34 49 -105 3 -147 -50 -46 -108 -30 -136 38 -20 48 -18 62 15
95 33 33 82 39 118 14z"/>
<path d="M1870 6567 c-41 -13 -120 -37 -175 -55 -55 -17 -147 -46 -205 -63
-58 -18 -112 -38 -120 -45 -8 -6 -33 -17 -55 -24 -36 -12 -81 -31 -225 -98
-25 -12 -73 -38 -106 -59 -34 -21 -85 -52 -113 -69 -96 -58 -257 -194 -323
-271 -98 -117 -142 -191 -176 -300 -65 -203 -66 -214 -53 -943 6 -360 14 -882
17 -1160 3 -278 8 -508 10 -511 2 -3 4 -111 5 -240 1 -129 5 -290 9 -359 4
-69 11 -188 14 -265 15 -321 42 -475 100 -559 52 -76 128 -164 167 -195 24
-19 61 -53 82 -77 21 -24 61 -57 90 -74 29 -17 84 -53 122 -80 39 -27 117 -73
175 -102 58 -28 110 -57 115 -64 6 -7 44 -26 85 -43 41 -17 91 -40 110 -50 19
-10 89 -40 155 -66 66 -26 124 -51 129 -56 6 -5 22 -9 36 -9 25 0 143 -39 285
-94 33 -13 75 -27 92 -31 18 -3 35 -11 38 -16 4 -5 16 -9 28 -9 34 1 195 -40
265 -66 34 -13 70 -24 79 -24 8 0 61 -13 117 -29 56 -16 164 -41 241 -55 77
-15 163 -31 190 -36 28 -6 86 -18 130 -26 44 -8 89 -19 100 -24 41 -18 313
-65 630 -110 44 -6 103 -15 130 -20 45 -8 136 -22 220 -34 17 -2 59 -7 95 -11
36 -3 99 -10 140 -16 41 -5 89 -12 105 -14 59 -7 254 -25 445 -40 107 -8 249
-19 315 -25 144 -12 265 -17 570 -25 127 -4 244 -9 260 -11 17 -3 199 -7 405
-10 276 -5 467 -2 725 11 193 9 438 20 545 25 107 5 247 13 310 19 63 6 189
15 280 21 191 12 331 25 485 45 61 8 166 22 235 30 69 9 177 24 240 35 63 11
149 24 190 30 257 35 540 86 554 100 5 5 21 10 35 10 15 0 73 11 131 25 58 14
168 36 244 50 77 15 148 30 157 36 10 5 57 18 106 29 48 11 122 32 163 45 109
35 224 65 254 65 13 0 27 4 30 9 3 5 27 14 53 20 27 6 68 20 93 31 50 21 145
53 235 79 33 10 74 23 90 30 17 7 53 21 80 31 28 10 79 31 115 48 87 40 143
64 215 92 33 13 67 31 75 40 8 9 33 26 55 37 22 11 66 34 98 52 31 17 64 31
72 31 8 0 18 6 22 13 4 6 48 39 98 72 219 146 384 334 437 500 38 117 47 212
59 580 5 182 14 391 18 465 5 74 9 284 10 465 1 182 6 481 11 665 11 384 13
890 4 890 -3 0 -43 -33 -88 -73 -108 -98 -204 -173 -298 -233 l-77 -49 -1
-105 c-1 -228 -11 -685 -20 -867 -6 -105 -10 -356 -10 -557 0 -201 -4 -366 -9
-366 -4 0 -19 8 -32 19 -13 10 -43 28 -66 39 -22 12 -43 25 -45 29 -4 9 -36
27 -178 100 -58 29 -112 57 -120 62 -22 13 -151 68 -180 76 -14 4 -63 24 -110
43 -47 19 -105 42 -130 51 -25 9 -49 19 -55 23 -10 6 -91 30 -169 49 -22 5
-60 18 -85 29 -38 15 -153 50 -326 99 -16 5 -111 28 -210 50 -99 23 -245 58
-325 78 -80 19 -179 42 -220 50 -150 28 -216 42 -285 58 -38 8 -95 21 -125 28
-30 7 -92 12 -137 12 -76 0 -84 -2 -120 -31 -21 -17 -51 -55 -66 -85 -24 -45
-28 -63 -25 -109 3 -47 11 -65 47 -112 46 -62 47 -62 136 -77 135 -23 171 -30
195 -39 14 -5 45 -12 70 -16 80 -11 113 -19 139 -32 14 -8 34 -14 44 -14 9 0
72 -13 139 -30 66 -16 134 -30 149 -30 35 0 98 -14 204 -45 44 -13 91 -26 105
-30 259 -64 422 -108 449 -121 19 -8 57 -19 84 -25 28 -5 58 -15 66 -23 9 -8
35 -19 59 -25 120 -33 316 -105 450 -167 40 -19 77 -34 82 -34 12 0 154 -82
158 -92 2 -4 22 -17 45 -28 114 -54 291 -193 323 -252 24 -46 29 -138 9 -197
-19 -59 -87 -138 -174 -204 -94 -72 -271 -179 -366 -222 -49 -22 -101 -48
-115 -58 -13 -9 -29 -17 -35 -17 -5 0 -21 -6 -35 -13 -14 -8 -39 -18 -55 -25
-17 -6 -66 -24 -110 -40 -44 -17 -141 -53 -215 -82 -74 -28 -169 -60 -210 -70
-41 -10 -93 -26 -115 -34 -22 -8 -47 -15 -55 -16 -8 0 -27 -6 -42 -14 -15 -8
-53 -20 -85 -26 -31 -7 -64 -16 -72 -20 -9 -5 -61 -18 -116 -30 -55 -12 -183
-41 -285 -64 -102 -24 -212 -49 -245 -55 -33 -7 -78 -17 -100 -22 -22 -5 -121
-23 -220 -40 -268 -46 -335 -58 -353 -63 -16 -6 -188 -33 -382 -61 -52 -8
-151 -19 -220 -25 -69 -6 -186 -18 -260 -26 -352 -40 -734 -71 -1185 -95 -341
-18 -1297 -17 -1575 2 -63 4 -209 13 -324 19 -115 6 -241 15 -280 20 -39 5
-102 11 -141 14 -199 16 -315 28 -360 36 -27 5 -104 14 -170 19 -178 15 -324
30 -380 41 -27 5 -108 16 -180 25 -71 8 -164 22 -205 30 -119 23 -336 62 -445
80 -124 20 -237 44 -475 99 -102 24 -212 49 -245 56 -33 7 -69 15 -80 19 -11
5 -76 22 -145 40 -178 46 -234 62 -245 70 -5 5 -37 13 -69 20 -67 12 -180 52
-336 116 -58 24 -121 48 -140 53 -39 11 -174 66 -205 84 -11 6 -42 22 -70 36
-232 113 -396 219 -497 324 -59 61 -80 91 -88 122 -5 22 -14 54 -20 70 -6 18
-6 35 0 47 6 10 10 26 10 36 0 32 186 209 252 239 31 14 79 44 123 79 11 8 40
25 65 38 25 13 59 30 75 39 17 9 55 26 85 38 112 46 176 72 207 86 52 24 172
64 260 87 46 12 83 27 83 32 0 11 199 73 335 104 97 23 410 104 435 114 8 3
33 8 55 11 50 6 233 41 260 49 11 4 60 13 109 22 50 8 92 19 95 24 6 8 137 35
261 52 36 5 94 14 130 19 36 6 157 24 270 40 113 17 230 34 260 40 30 5 116
16 190 25 74 8 191 22 260 30 69 7 195 19 280 24 529 35 746 47 1204 67 l149
6 61 37 c73 45 101 83 109 148 16 121 -58 219 -179 238 -36 6 -563 -8 -789
-20 -351 -20 -644 -43 -720 -56 -85 -14 -184 -27 -300 -39 -136 -14 -294 -32
-520 -60 -115 -14 -273 -38 -325 -50 -49 -11 -153 -31 -415 -80 -244 -45 -261
-49 -351 -69 -45 -10 -90 -23 -100 -29 -11 -5 -53 -17 -94 -26 -41 -9 -113
-25 -160 -36 -47 -12 -114 -25 -150 -31 -36 -6 -69 -15 -75 -19 -5 -4 -35 -13
-65 -20 -30 -6 -107 -29 -170 -50 -161 -54 -210 -68 -258 -76 -23 -4 -45 -10
-48 -15 -3 -5 -24 -13 -47 -20 -23 -6 -53 -18 -67 -27 -14 -9 -43 -22 -65 -29
-105 -31 -291 -105 -335 -133 -8 -6 -40 -23 -70 -39 -145 -75 -196 -104 -210
-121 -8 -10 -25 -21 -38 -25 -12 -3 -36 -18 -52 -32 -49 -41 -60 -27 -57 74 1
48 0 114 -4 147 -4 32 -10 302 -13 600 -4 297 -9 573 -11 611 -3 39 -8 279
-11 534 l-7 465 34 -21 c19 -11 61 -36 94 -56 33 -20 76 -48 95 -62 58 -44
347 -179 521 -243 90 -34 181 -70 202 -81 42 -21 168 -61 257 -81 30 -7 136
-38 235 -70 99 -32 218 -66 265 -75 47 -9 121 -27 165 -40 44 -13 98 -26 120
-30 22 -4 47 -13 55 -20 8 -7 29 -15 45 -17 17 -3 84 -17 150 -31 66 -14 161
-32 210 -41 111 -19 274 -51 380 -76 183 -44 503 -83 570 -71 54 10 75 23 117
69 40 44 63 121 55 182 -6 46 -54 116 -101 148 -43 29 -152 53 -371 82 -210
27 -651 114 -685 135 -4 3 -59 14 -121 25 -158 27 -241 47 -439 102 -58 17
-141 38 -185 49 -44 10 -132 34 -195 54 -63 20 -143 45 -176 55 -34 10 -72 24
-85 30 -12 7 -45 18 -73 25 -57 15 -188 62 -256 93 -116 53 -137 62 -144 62
-10 0 -181 75 -211 92 -10 6 -37 21 -60 33 -176 97 -335 223 -376 299 -23 42
-25 54 -17 84 20 74 67 128 162 188 25 16 46 34 46 39 0 18 465 245 502 245
21 0 166 48 222 74 53 24 117 47 245 87 120 38 171 102 171 215 0 58 -44 139
-92 172 -56 37 -138 40 -238 9z"/>
<path d="M6802 6294 c-47 -23 -122 -95 -122 -116 0 -4 -203 -8 -451 -8 -318 0
-457 -3 -472 -11 -19 -10 -239 -230 -382 -381 l-45 -47 -67 1 c-140 3 -234
-60 -269 -178 -39 -134 26 -266 153 -314 104 -39 198 -17 278 65 64 65 81 116
71 211 l-7 66 180 178 c121 119 190 179 208 183 16 3 200 6 410 7 l381 0 21
-26 c11 -14 39 -41 63 -59 l43 -34 5 -156 5 -155 -340 0 c-307 0 -342 -2 -365
-18 -36 -25 -430 -418 -430 -429 0 -17 132 -153 148 -153 10 0 103 86 207 190
l190 190 363 0 c401 0 405 1 435 62 13 26 16 73 16 248 1 188 3 216 18 225 81
50 123 123 123 218 0 90 -17 135 -75 192 -80 81 -192 99 -293 49z m170 -145
c11 -6 26 -26 34 -44 33 -79 -41 -161 -121 -135 -67 22 -90 116 -40 165 26 27
89 34 127 14z m-1683 -584 c99 -50 31 -210 -74 -175 -43 14 -65 44 -65 88 0
43 14 68 48 86 35 19 56 20 91 1z"/>
</g>
</svg>
