<?xml version="1.0" encoding="UTF-8" standalone="no"?>
<!-- Created with Inkscape (http://www.inkscape.org/) -->

<svg
   xmlns:dc="http://purl.org/dc/elements/1.1/"
   xmlns:cc="http://creativecommons.org/ns#"
   xmlns:rdf="http://www.w3.org/1999/02/22-rdf-syntax-ns#"
   xmlns:svg="http://www.w3.org/2000/svg"
   xmlns="http://www.w3.org/2000/svg"
   xmlns:sodipodi="http://sodipodi.sourceforge.net/DTD/sodipodi-0.dtd"
   xmlns:inkscape="http://www.inkscape.org/namespaces/inkscape"
   width="605.18774"
   height="291.86249"
   id="svg2"
   version="1.1"
   inkscape:version="0.48.4 r9939"
   sodipodi:docname="unesp-left.svg">
  <defs
     id="defs4" />
  <sodipodi:namedview
     id="base"
     pagecolor="#ffffff"
     bordercolor="#666666"
     borderopacity="1.0"
     inkscape:pageopacity="0.0"
     inkscape:pageshadow="2"
     inkscape:zoom="0.35"
     inkscape:cx="300.45102"
     inkscape:cy="-8.3544646"
     inkscape:document-units="px"
     inkscape:current-layer="layer1"
     showgrid="false"
     inkscape:window-width="1680"
     inkscape:window-height="987"
     inkscape:window-x="-8"
     inkscape:window-y="-8"
     inkscape:window-maximized="1"
     fit-margin-top="0"
     fit-margin-left="0"
     fit-margin-right="0"
     fit-margin-bottom="0" />
  <metadata
     id="metadata7">
    <rdf:RDF>
      <cc:Work
         rdf:about="">
        <dc:format>image/svg+xml</dc:format>
        <dc:type
           rdf:resource="http://purl.org/dc/dcmitype/StillImage" />
        <dc:title></dc:title>
      </cc:Work>
    </rdf:RDF>
  </metadata>
  <g
     inkscape:label="Layer 1"
     inkscape:groupmode="layer"
     id="layer1"
     transform="translate(-74.548982,-232.14522)">
    <g
       style="fill-rule:evenodd"
       id="g3011"
       transform="matrix(1.25,0,0,1.25,12.416732,-88.056032)">
      <g
         id="g2987">
        <g
           id="g2989">
          <path
             id="path2991"
             d="m 117.407,305.501 0,75.632 -19.8303,0 0,-8.977 c -2.872,3.656 -6.2446,6.413 -10.0684,8.239 -3.8204,1.83 -8.1207,2.756 -12.8925,2.756 -8.3114,0 -14.5414,-2.18 -18.6877,-6.53 -4.1622,-4.363 -6.2223,-10.9 -6.2223,-19.566 l 0,-51.554 20.2549,0 0,45.712 c 0,5.388 0.9054,9.212 2.7084,11.517 1.8034,2.303 4.7945,3.442 8.9752,3.442 4.7253,0 8.5012,-1.427 11.302,-4.272 2.8013,-2.85 4.2048,-6.748 4.2048,-11.661 l 0,-44.738 20.2559,0 z"
             style="fill:#2c2c2b;stroke:none"
             inkscape:connector-curvature="0" />
          <path
             id="path2993"
             d="m 360.136,411.528 0,-105.957 19.259,0 0,10.235 c 2.922,-4.465 6.198,-7.693 9.784,-9.737 3.586,-2.042 7.836,-3.063 12.703,-3.063 9.307,0 16.883,3.681 22.677,11.019 5.795,7.362 8.694,17.025 8.694,28.97 0,12.11 -2.899,21.941 -8.694,29.468 -5.794,7.527 -13.273,11.305 -22.413,11.305 -4.824,0 -9.121,-1.024 -12.894,-3.064 -3.779,-2.043 -6.935,-5.012 -9.43,-8.905 l 0,39.729 -19.686,0 z m 53.001,-67.701 c 0,-7.602 -1.448,-13.417 -4.32,-17.432 -2.872,-4.01 -7.032,-6.008 -12.516,-6.008 -5.364,0 -9.474,1.998 -12.276,5.986 -2.802,3.988 -4.203,9.806 -4.203,17.454 0,7.147 1.474,12.68 4.416,16.574 2.946,3.893 7.102,5.84 12.493,5.84 5.104,0 9.091,-1.993 12.013,-5.983 2.922,-3.991 4.393,-9.473 4.393,-16.431 z"
             style="fill:#2c2c2b;stroke:none"
             inkscape:connector-curvature="0" />
          <path
             id="path2995"
             d="m 303.807,358.241 c 0.47,3.008 1.801,5.315 4.016,6.908 2.589,1.87 6.482,2.828 11.679,2.828 3.943,0 7.002,-0.675 9.167,-1.996 2.155,-1.314 3.229,-3.181 3.229,-5.604 0,-3.419 -4.036,-6.018 -12.109,-7.717 -3.299,-0.697 -5.915,-1.309 -7.859,-1.805 -9.851,-2.517 -16.666,-5.469 -20.494,-8.906 -3.816,-3.423 -5.747,-8.074 -5.747,-13.915 0,-7.739 2.81,-13.861 8.38,-18.38 5.588,-4.524 13.16,-6.791 22.704,-6.791 10.115,0 18.081,2.25 23.842,6.745 5.774,4.502 8.83,10.83 9.214,18.997 l -19.689,0 c -0.14,-3.206 -1.351,-5.68 -3.656,-7.456 -2.278,-1.758 -5.484,-2.636 -9.571,-2.636 -3.846,0 -6.691,0.57 -8.57,1.735 -1.874,1.163 -2.825,2.894 -2.825,5.221 0,3.016 5.027,5.704 15.102,8.005 2.295,0.523 4.129,0.938 5.484,1.256 10.067,2.364 16.95,5.21 20.639,8.547 3.673,3.33 5.531,8.028 5.531,14.106 0,8.598 -3.013,15.135 -9.074,19.64 -6.048,4.493 -14.861,6.745 -26.403,6.745 -10.448,0 -18.618,-2.352 -24.505,-7.03 -5.68,-4.513 -8.626,-10.687 -8.829,-18.497 l 20.344,0 z"
             style="fill:#2c2c2b;stroke:none"
             inkscape:connector-curvature="0" />
          <path
             id="path2997"
             d="m 225.855,335.421 29.776,0 c -0.191,-5.107 -1.532,-8.989 -4.061,-11.661 -2.526,-2.67 -6.174,-3.99 -10.898,-3.99 -4.395,0 -7.867,1.35 -10.403,4.037 -2.522,2.679 -3.989,6.554 -4.414,11.614 z m 29.492,22.82 20.185,0 c -2.043,7.977 -6.159,14.216 -12.35,18.735 -6.203,4.525 -13.75,6.792 -22.654,6.792 -10.946,0 -19.629,-3.673 -26.026,-11.022 -6.4,-7.346 -9.593,-17.309 -9.593,-29.893 0,-12.371 3.152,-22.139 9.451,-29.279 6.31,-7.154 14.937,-10.711 25.884,-10.711 11.611,0 20.572,3.51 26.881,10.545 6.3,7.022 9.451,17.024 9.451,30.014 0,1.45 0,2.519 -0.024,3.253 -0.023,0.712 -0.095,1.401 -0.19,2.043 l -50.507,0 c 0.284,5.937 1.732,10.401 4.344,13.416 2.612,3.015 6.388,4.512 11.303,4.512 3.491,0 6.345,-0.686 8.55,-2.043 2.233,-1.372 3.989,-3.49 5.295,-6.362 z"
             style="fill:#2c2c2b;stroke:none"
             inkscape:connector-curvature="0" />
          <path
             id="path2999"
             d="m 129.306,381.133 0,-75.631 19.829,0 0,8.977 c 2.851,-3.659 6.174,-6.414 10.021,-8.242 3.846,-1.828 8.144,-2.755 12.87,-2.755 8.357,0 14.606,2.161 18.76,6.508 4.154,4.345 6.221,10.851 6.221,19.59 l 0,51.553 -20.255,0 0,-45.712 c 0,-5.438 -0.928,-9.31 -2.755,-11.611 -1.83,-2.328 -4.797,-3.492 -8.928,-3.492 -4.774,0 -8.55,1.426 -11.327,4.276 -2.777,2.85 -4.181,6.742 -4.181,11.659 l 0,44.88 -20.255,0 z"
             style="fill:#2c2c2b;stroke:none"
             inkscape:connector-curvature="0" />
          <path
             id="path3001"
             d="m 521.344,304.061 12.512,-21.688 -25.012,0 12.5,21.688 z m -15.125,-20.166 -12.503,21.678 25.012,0 -12.509,-21.678 z m 0,46.388 12.509,-21.687 -25.012,0 12.503,21.687 z m -15.129,-20.175 -12.499,21.687 25.012,0 -12.513,-21.687 z m -2.615,-1.512 -25.013,0 12.513,21.687 12.5,-21.687 z m -12.5,-24.701 -12.513,21.678 25.013,0 -12.5,-21.678 z m 2.616,-1.522 12.499,21.688 12.513,-21.688 -25.012,0 z m 12.499,-24.7 -12.499,21.676 25.012,0 -12.513,-21.676 z m -15.115,20.165 12.5,-21.677 -25.013,0 12.513,21.677 z m -15.128,-20.165 -12.509,21.676 25.009,0 -12.5,-21.676 z m 0,46.388 12.5,-21.688 -25.009,0 12.509,21.688 -15.128,-20.091 -12.466,21.603 24.936,0 -12.47,-21.603 15.128,20.091 z"
             style="fill:#009fe0;stroke:none"
             inkscape:connector-curvature="0" />
          <path
             id="path3003"
             d="m 416.039,472.501 0,-3.468 3.653,0 0,3.413 c 0,1.099 -0.34,2.025 -1.02,2.772 -0.684,0.746 -1.558,1.143 -2.633,1.196 l 0,-1.349 c 0.664,-0.157 1.161,-0.432 1.482,-0.831 0.32,-0.397 0.48,-0.921 0.48,-1.576 l 0,-0.157 -1.962,0 z m 5.762,0 0,-3.468 3.649,0 0,3.413 c 0,1.099 -0.337,2.025 -1.017,2.772 -0.685,0.746 -1.562,1.143 -2.632,1.196 l 0,-1.349 c 0.653,-0.157 1.144,-0.432 1.471,-0.828 0.327,-0.387 0.49,-0.9 0.49,-1.528 l 0,-0.208 -1.961,0 z m -26.941,6.188 c 0,-3.114 0.85,-5.584 2.549,-7.414 1.698,-1.828 3.982,-2.742 6.865,-2.742 2.879,0 5.17,0.914 6.878,2.747 1.708,1.833 2.562,4.303 2.562,7.409 0,3.109 -0.854,5.581 -2.562,7.412 -1.708,1.833 -3.999,2.749 -6.878,2.749 -2.883,0 -5.167,-0.916 -6.865,-2.749 -1.699,-1.831 -2.549,-4.303 -2.549,-7.412 z m 4.043,0 c 0,2.122 0.474,3.771 1.418,4.946 0.944,1.176 2.261,1.761 3.953,1.761 1.714,0 3.045,-0.585 3.996,-1.761 0.951,-1.175 1.425,-2.824 1.425,-4.946 0,-2.118 -0.474,-3.766 -1.425,-4.942 -0.951,-1.176 -2.282,-1.761 -3.996,-1.761 -1.692,0 -3.009,0.585 -3.953,1.756 -0.944,1.171 -1.418,2.821 -1.418,4.947 z m -23.128,9.626 0,-19.282 3.993,0 0,7.186 7.957,0 0,-7.186 3.993,0 0,19.282 -3.993,0 0,-8.549 -7.957,0 0,8.549 -3.993,0 z m -15.551,0 0,-19.282 3.969,0 0,15.721 9.411,0 0,3.561 -13.38,0 z m -8.097,0 0,-19.282 3.97,0 0,19.282 -3.97,0 z m -16.166,0 0,-19.282 13.461,0 0,3.351 -9.548,0 0,4.375 8.367,0 0,3.351 -8.367,0 0,8.205 -3.913,0 z m -21.136,-19.282 4.58,0 6.953,19.282 -4.163,0 -1.312,-3.965 -7.469,0 -1.271,3.965 -4.176,0 6.858,-19.282 z m 2.305,3.86 -2.672,8.21 5.354,0 -2.682,-8.21 z m -18.15,15.422 0,-15.837 -5.722,0 0,-3.445 15.369,0 0,3.445 -5.677,0 0,15.837 -3.97,0 z m -12.093,0 0,-19.282 3.969,0 0,19.282 -3.969,0 z m -19.472,-19.335 4.003,0 0,12.096 c 0,1.491 0.297,2.582 0.891,3.266 0.594,0.684 1.538,1.027 2.826,1.027 1.311,0 2.261,-0.34 2.861,-1.022 0.598,-0.681 0.898,-1.77 0.898,-3.271 l 0,-12.096 3.97,0 0,12.53 c 0,2.363 -0.664,4.176 -1.985,5.441 -1.325,1.265 -3.226,1.899 -5.714,1.899 -2.506,0 -4.421,-0.63 -5.752,-1.89 -1.331,-1.26 -1.998,-3.078 -1.998,-5.45 l 0,-12.53 z m -7.339,18.534 c -0.657,0.439 -1.414,0.769 -2.285,0.998 -0.867,0.227 -1.815,0.338 -2.835,0.338 -2.882,0 -5.171,-0.916 -6.866,-2.749 -1.701,-1.831 -2.548,-4.303 -2.548,-7.412 0,-3.114 0.847,-5.584 2.548,-7.414 1.695,-1.828 3.984,-2.742 6.866,-2.742 2.878,0 5.17,0.914 6.878,2.747 1.708,1.837 2.559,4.303 2.559,7.414 0,1.363 -0.174,2.604 -0.524,3.735 -0.347,1.132 -0.86,2.123 -1.545,2.967 l 2.095,2.002 -2.144,2.253 -2.199,-2.137 z m -2.792,-2.627 -2.041,-1.988 2.175,-2.253 2.094,2.043 c 0.281,-0.524 0.494,-1.123 0.641,-1.797 0.147,-0.67 0.224,-1.402 0.224,-2.198 0,-2.123 -0.474,-3.771 -1.425,-4.947 -0.954,-1.176 -2.285,-1.761 -3.996,-1.761 -1.691,0 -3.009,0.585 -3.953,1.756 -0.945,1.171 -1.418,2.821 -1.418,4.947 0,2.122 0.473,3.771 1.418,4.946 0.944,1.176 2.262,1.761 3.953,1.761 0.433,0 0.85,-0.044 1.237,-0.129 0.39,-0.09 0.751,-0.215 1.091,-0.38 z m -29.674,-2.529 3.913,0 c 0.149,1.054 0.582,1.835 1.296,2.351 0.716,0.508 1.749,0.764 3.102,0.764 1.153,0 2.019,-0.206 2.606,-0.618 0.584,-0.406 0.874,-1.014 0.874,-1.818 0,-1.17 -1.679,-2.136 -5.039,-2.905 -0.046,-0.008 -0.085,-0.017 -0.116,-0.027 -0.089,-0.017 -0.224,-0.048 -0.408,-0.093 -1.8,-0.394 -3.083,-0.831 -3.847,-1.323 -0.683,-0.434 -1.201,-1.022 -1.56,-1.761 -0.357,-0.736 -0.535,-1.603 -0.535,-2.609 0,-1.876 0.639,-3.316 1.912,-4.317 1.274,-0.995 3.114,-1.496 5.523,-1.496 2.252,0 4.014,0.531 5.28,1.595 1.271,1.067 1.942,2.565 2.012,4.505 l -3.81,0 c -0.073,-0.936 -0.43,-1.646 -1.074,-2.133 -0.647,-0.487 -1.568,-0.732 -2.761,-0.732 -1.042,0 -1.842,0.201 -2.404,0.608 -0.563,0.405 -0.845,0.982 -0.845,1.733 0,1.024 1.096,1.784 3.284,2.292 0.596,0.14 1.059,0.247 1.391,0.325 1.402,0.359 2.403,0.641 2.989,0.838 0.588,0.2 1.102,0.425 1.542,0.67 0.781,0.437 1.371,1.014 1.764,1.733 0.394,0.719 0.591,1.583 0.591,2.587 0,2.008 -0.674,3.561 -2.028,4.665 -1.355,1.105 -3.258,1.658 -5.72,1.658 -2.426,0 -4.332,-0.564 -5.707,-1.688 -1.381,-1.125 -2.122,-2.727 -2.225,-4.804 z m -16.623,5.957 0,-19.282 14.004,0 0,3.351 -10.09,0 0,4.11 9.228,0 0,3.299 -9.228,0 0,4.961 10.564,0 0,3.561 -14.478,0 z m -23.379,0 0,-19.282 5.867,0 3.834,14.673 3.784,-14.673 5.89,0 0,19.282 -3.718,0 0,-15.552 -3.915,15.552 -4.056,0 -3.968,-15.552 0,15.552 -3.718,0 z m -25.122,0 0,-19.282 14.005,0 0,3.351 -10.091,0 0,4.11 9.229,0 0,3.299 -9.229,0 0,4.961 10.564,0 0,3.561 -14.478,0 z m -19.491,0 0,-19.282 7.552,0 c 2.957,0 5.165,0.799 6.617,2.395 1.453,1.595 2.181,4.017 2.181,7.266 0,1.76 -0.268,3.316 -0.804,4.66 -0.536,1.345 -1.318,2.427 -2.338,3.245 -0.767,0.612 -1.639,1.05 -2.617,1.317 -0.979,0.264 -2.348,0.399 -4.112,0.399 l -6.479,0 z m 3.887,-3.481 3.182,0 c 1.841,0 3.176,-0.484 4,-1.448 0.826,-0.961 1.238,-2.528 1.238,-4.692 0,-2.153 -0.385,-3.741 -1.153,-4.75 -0.769,-1.014 -1.967,-1.52 -3.602,-1.52 l -3.665,0 0,12.41 z m -33.491,-6.145 c 0,-3.114 0.849,-5.584 2.547,-7.414 1.699,-1.828 3.986,-2.742 6.868,-2.742 2.878,0 5.17,0.914 6.877,2.747 1.707,1.833 2.56,4.303 2.56,7.409 0,3.109 -0.853,5.581 -2.56,7.412 -1.707,1.833 -3.999,2.749 -6.877,2.749 -2.882,0 -5.169,-0.916 -6.868,-2.749 -1.698,-1.831 -2.547,-4.303 -2.547,-7.412 z m 4.044,0 c 0,2.122 0.473,3.771 1.416,4.946 0.943,1.176 2.261,1.761 3.955,1.761 1.712,0 3.043,-0.585 3.995,-1.761 0.951,-1.175 1.425,-2.824 1.425,-4.946 0,-2.118 -0.474,-3.766 -1.425,-4.942 -0.952,-1.176 -2.283,-1.761 -3.995,-1.761 -1.694,0 -3.012,0.585 -3.955,1.756 -0.943,1.171 -1.416,2.821 -1.416,4.947 z m -11.304,9.626 0,-19.282 3.967,0 0,19.282 -3.967,0 z m -15.6859,0 0,-19.282 3.9677,0 0,15.721 9.4112,0 0,3.561 -13.3789,0 z m -7.7565,-25.815 -4.0984,4.844 -1.8586,0 2.5786,-4.844 3.3784,0 z m -11.5828,6.48 4.0034,0 0,12.096 c 0,1.491 0.2948,2.582 0.8894,3.266 0.5945,0.684 1.5376,1.027 2.8289,1.027 1.3091,0 2.2605,-0.34 2.8594,-1.022 0.5989,-0.681 0.8985,-1.77 0.8985,-3.271 l 0,-12.096 3.9677,0 0,12.53 c 0,2.363 -0.6619,4.176 -1.9841,5.441 -1.3227,1.265 -3.2264,1.899 -5.7149,1.899 -2.5026,0 -4.4184,-0.63 -5.7512,-1.89 -1.331,-1.26 -1.9971,-3.078 -1.9971,-5.45 l 0,-12.53 z m -16.055,12.144 3.8335,0 0,2.334 c 0,0.669 0.2014,1.182 0.6038,1.536 0.4013,0.354 0.9784,0.532 1.7284,0.532 0.8182,0 1.39,-0.215 1.7163,-0.644 0.322,-0.423 0.4827,-1.229 0.4827,-2.408 l 0,-13.441 3.9681,0 0,13.624 c 0,1.219 -0.0716,2.118 -0.2154,2.691 -0.1458,0.572 -0.3835,1.075 -0.7137,1.514 -0.5054,0.644 -1.2016,1.139 -2.0823,1.48 -0.8797,0.338 -1.9173,0.508 -3.1015,0.508 -1.0903,0 -2.0557,-0.147 -2.8967,-0.447 -0.8337,-0.293 -1.5362,-0.737 -2.0958,-1.323 -0.4411,-0.468 -0.7587,-0.995 -0.9466,-1.577 -0.1864,-0.581 -0.2808,-1.537 -0.2808,-2.872 l 0,-1.507 z m -1.6945,-8.7 0,3.455 -3.6505,0 0,-3.374 c 0,-1.113 0.3394,-2.037 1.0191,-2.779 0.6832,-0.743 1.5595,-1.14 2.6314,-1.193 l 0,1.334 c -0.6613,0.157 -1.1566,0.434 -1.4786,0.833 -0.322,0.397 -0.4822,0.915 -0.4822,1.556 l 0,0.168 1.9608,0 z m 5.7599,0 0,3.455 -3.65,0 0,-3.374 c 0,-1.113 0.3394,-2.037 1.0182,-2.779 0.6836,-0.743 1.5604,-1.14 2.6318,-1.193 l 0,1.334 c -0.6521,0.157 -1.144,0.431 -1.4703,0.819 -0.3259,0.389 -0.4909,0.894 -0.4909,1.515 l 0,0.223 1.9612,0 z m -9.4104,-40.007 4.0039,0 0,12.096 c 0,1.493 0.2954,2.583 0.8899,3.267 0.5945,0.684 1.5377,1.028 2.8279,1.028 1.3101,0 2.261,-0.341 2.8604,-1.023 0.5989,-0.68 0.8986,-1.769 0.8986,-3.272 l 0,-12.096 3.9671,0 0,12.53 c 0,2.365 -0.6609,4.178 -1.9831,5.442 -1.3227,1.266 -3.2268,1.9 -5.7154,1.9 -2.5026,0 -4.4193,-0.631 -5.7512,-1.89 -1.3309,-1.261 -1.9981,-3.079 -1.9981,-5.452 l 0,-12.53 z m 19.3399,19.336 0,-19.281 4.1525,0 7.8283,13.248 0,-13.248 3.9139,0 0,19.281 -4.0974,0 -7.883,-13.25 0,13.25 -3.9143,0 z m 20.0022,0 0,-19.281 3.9676,0 0,19.281 -3.9676,0 z m 12.6271,0 -6.6493,-19.281 4.3966,0 4.0977,14.423 4.178,-14.423 4.343,0 -6.567,19.281 -3.799,0 z m 12.226,0 0,-19.281 14.004,0 0,3.351 -10.09,0 0,4.11 9.229,0 0,3.297 -9.229,0 0,4.961 10.564,0 0,3.562 -14.478,0 z m 21.476,-10.849 4.664,0 c 1.01,0 1.753,-0.206 2.23,-0.618 0.474,-0.41 0.711,-1.054 0.711,-1.939 0,-0.836 -0.233,-1.47 -0.693,-1.903 -0.461,-0.434 -1.153,-0.65 -2.064,-0.65 l -4.848,0 0,5.11 z m -3.969,10.849 0,-19.281 9.352,0 c 2.101,0 3.661,0.45 4.671,1.348 1.014,0.899 1.518,2.276 1.518,4.124 0,1.176 -0.245,2.159 -0.741,2.946 -0.491,0.786 -1.202,1.323 -2.127,1.608 0.84,0.3 1.434,0.751 1.791,1.363 0.354,0.612 0.555,1.564 0.608,2.855 l 0.081,2.275 c 0,0.017 0,0.044 0,0.081 0.022,1.149 0.272,1.851 0.745,2.091 l 0,0.59 -4.351,0 c -0.139,-0.273 -0.241,-0.603 -0.318,-1.002 -0.071,-0.397 -0.12,-0.871 -0.134,-1.421 l -0.054,-2.028 c -0.044,-1.193 -0.267,-2.002 -0.674,-2.417 -0.407,-0.421 -1.139,-0.631 -2.194,-0.631 l -4.204,0 0,7.499 -3.969,0 z m 18.258,-5.956 3.914,0 c 0.148,1.054 0.582,1.835 1.296,2.349 0.716,0.51 1.748,0.765 3.102,0.765 1.153,0 2.019,-0.205 2.606,-0.617 0.585,-0.407 0.874,-1.014 0.874,-1.818 0,-1.172 -1.68,-2.136 -5.04,-2.905 -0.045,-0.01 -0.085,-0.017 -0.116,-0.027 -0.089,-0.017 -0.223,-0.049 -0.406,-0.094 -1.801,-0.393 -3.085,-0.83 -3.848,-1.324 -0.684,-0.432 -1.202,-1.022 -1.56,-1.759 -0.357,-0.736 -0.535,-1.603 -0.535,-2.611 0,-1.875 0.639,-3.314 1.912,-4.315 1.273,-0.996 3.114,-1.496 5.523,-1.496 2.252,0 4.013,0.53 5.282,1.595 1.269,1.067 1.939,2.565 2.01,4.505 l -3.811,0 c -0.072,-0.936 -0.429,-1.647 -1.073,-2.134 -0.647,-0.487 -1.568,-0.732 -2.761,-0.732 -1.042,0 -1.841,0.202 -2.404,0.607 -0.564,0.407 -0.845,0.982 -0.845,1.735 0,1.022 1.095,1.783 3.285,2.292 0.594,0.138 1.058,0.247 1.389,0.325 1.403,0.358 2.403,0.64 2.99,0.837 0.589,0.2 1.103,0.424 1.542,0.671 0.781,0.437 1.371,1.014 1.764,1.733 0.393,0.719 0.591,1.581 0.591,2.587 0,2.006 -0.676,3.561 -2.029,4.665 -1.355,1.104 -3.258,1.658 -5.72,1.658 -2.425,0 -4.33,-0.564 -5.706,-1.69 -1.382,-1.124 -2.123,-2.725 -2.226,-4.802 z m 18.902,5.956 0,-19.281 3.968,0 0,19.281 -3.968,0 z m 11.984,-3.481 3.183,0 c 1.84,0 3.175,-0.483 3.997,-1.447 0.827,-0.961 1.239,-2.53 1.239,-4.692 0,-2.155 -0.385,-3.742 -1.153,-4.751 -0.768,-1.014 -1.967,-1.519 -3.603,-1.519 l -3.663,0 0,12.409 z m -3.887,3.481 0,-19.281 7.55,0 c 2.96,0 5.167,0.799 6.619,2.395 1.453,1.595 2.181,4.017 2.181,7.266 0,1.759 -0.269,3.314 -0.805,4.658 -0.535,1.346 -1.318,2.429 -2.338,3.245 -0.767,0.612 -1.639,1.05 -2.618,1.319 -0.978,0.263 -2.346,0.398 -4.11,0.398 l -6.479,0 z m 26.457,-15.421 -2.672,8.209 5.353,0 -2.681,-8.209 z m -2.306,-3.86 4.581,0 6.953,19.281 -4.165,0 -1.309,-3.964 -7.471,0 -1.27,3.964 -4.178,0 6.859,-19.281 z m 17.41,15.8 3.181,0 c 1.842,0 3.177,-0.483 4,-1.447 0.826,-0.961 1.238,-2.53 1.238,-4.692 0,-2.155 -0.384,-3.742 -1.153,-4.751 -0.769,-1.014 -1.967,-1.519 -3.602,-1.519 l -3.664,0 0,12.409 z m -3.888,3.481 0,-19.281 7.552,0 c 2.958,0 5.165,0.799 6.617,2.395 1.453,1.595 2.182,4.017 2.182,7.266 0,1.759 -0.269,3.314 -0.805,4.658 -0.536,1.346 -1.318,2.429 -2.338,3.245 -0.767,0.612 -1.639,1.05 -2.617,1.319 -0.979,0.263 -2.348,0.398 -4.111,0.398 l -6.48,0 z m 19.491,0 0,-19.281 14.005,0 0,3.351 -10.09,0 0,4.11 9.228,0 0,3.297 -9.228,0 0,4.961 10.563,0 0,3.562 -14.478,0 z m 25.122,0 0,-19.281 14.004,0 0,3.351 -10.089,0 0,4.11 9.228,0 0,3.297 -9.228,0 0,4.961 10.563,0 0,3.562 -14.478,0 z m 16.624,-5.956 3.914,0 c 0.147,1.054 0.58,1.835 1.296,2.349 0.714,0.51 1.746,0.765 3.101,0.765 1.152,0 2.019,-0.205 2.605,-0.617 0.585,-0.407 0.876,-1.014 0.876,-1.818 0,-1.172 -1.681,-2.136 -5.041,-2.905 -0.045,-0.01 -0.086,-0.017 -0.117,-0.027 -0.088,-0.017 -0.223,-0.049 -0.406,-0.094 -1.801,-0.393 -3.083,-0.83 -3.847,-1.324 -0.684,-0.432 -1.202,-1.022 -1.561,-1.759 -0.357,-0.736 -0.535,-1.603 -0.535,-2.611 0,-1.875 0.639,-3.314 1.912,-4.315 1.274,-0.996 3.114,-1.496 5.524,-1.496 2.251,0 4.012,0.53 5.281,1.595 1.269,1.067 1.939,2.565 2.012,4.505 l -3.813,0 c -0.071,-0.936 -0.429,-1.647 -1.072,-2.134 -0.648,-0.487 -1.568,-0.732 -2.762,-0.732 -1.04,0 -1.841,0.202 -2.403,0.607 -0.563,0.407 -0.845,0.982 -0.845,1.735 0,1.022 1.094,1.783 3.284,2.292 0.595,0.138 1.059,0.247 1.39,0.325 1.403,0.358 2.404,0.64 2.99,0.837 0.589,0.2 1.102,0.424 1.541,0.671 0.781,0.437 1.372,1.014 1.765,1.733 0.393,0.719 0.59,1.581 0.59,2.587 0,2.006 -0.675,3.561 -2.029,4.665 -1.353,1.104 -3.257,1.658 -5.72,1.658 -2.426,0 -4.329,-0.564 -5.706,-1.69 -1.38,-1.124 -2.123,-2.725 -2.224,-4.802 z m 22.761,5.956 0,-15.837 -5.72,0 0,-3.444 15.367,0 0,3.444 -5.677,0 0,15.837 -3.97,0 z m 18.15,-15.421 -2.672,8.209 5.355,0 -2.683,-8.209 z m -2.305,-3.86 4.58,0 6.953,19.281 -4.163,0 -1.311,-3.964 -7.469,0 -1.272,3.964 -4.176,0 6.858,-19.281 z m 17.407,15.8 3.182,0 c 1.842,0 3.18,-0.483 4,-1.447 0.827,-0.961 1.238,-2.53 1.238,-4.692 0,-2.155 -0.384,-3.742 -1.151,-4.751 -0.771,-1.014 -1.968,-1.519 -3.603,-1.519 l -3.666,0 0,12.409 z m -3.886,3.481 0,-19.281 7.552,0 c 2.959,0 5.164,0.799 6.618,2.395 1.452,1.595 2.182,4.017 2.182,7.266 0,1.759 -0.27,3.314 -0.807,4.658 -0.534,1.346 -1.318,2.429 -2.335,3.245 -0.768,0.612 -1.642,1.05 -2.619,1.319 -0.977,0.263 -2.348,0.398 -4.109,0.398 l -6.482,0 z m 19.374,-19.336 4.004,0 0,12.096 c 0,1.493 0.297,2.583 0.89,3.267 0.594,0.684 1.538,1.028 2.829,1.028 1.311,0 2.262,-0.341 2.862,-1.023 0.597,-0.68 0.898,-1.769 0.898,-3.272 l 0,-12.096 3.966,0 0,12.53 c 0,2.365 -0.661,4.178 -1.985,5.442 -1.321,1.266 -3.226,1.9 -5.714,1.9 -2.502,0 -4.42,-0.631 -5.751,-1.89 -1.331,-1.261 -1.999,-3.079 -1.999,-5.452 l 0,-12.53 z m 26.047,3.915 -2.672,8.209 5.354,0 -2.682,-8.209 z m -2.305,-3.86 4.58,0 6.952,19.281 -4.163,0 -1.311,-3.964 -7.469,0 -1.271,3.964 -4.176,0 6.858,-19.281 z m 13.524,19.281 0,-19.281 3.966,0 0,15.719 9.411,0 0,3.562 -13.377,0 z m 27.157,-10.354 3.837,0 c 1.034,0 1.791,-0.218 2.265,-0.661 0.467,-0.444 0.704,-1.149 0.704,-2.128 0,-0.916 -0.231,-1.608 -0.691,-2.082 -0.464,-0.468 -1.154,-0.705 -2.068,-0.705 l -4.047,0 0,5.576 z m -0.027,3.494 0,6.86 -3.966,0 0,-19.281 8.574,0 c 2.024,0 3.559,0.527 4.603,1.576 1.041,1.051 1.565,2.592 1.565,4.629 0,1.988 -0.511,3.523 -1.535,4.598 -1.017,1.078 -2.479,1.618 -4.37,1.618 l -4.871,0 z m 19.379,-8.561 -2.675,8.209 5.354,0 -2.679,-8.209 z m -2.308,-3.86 4.58,0 6.955,19.281 -4.167,0 -1.307,-3.964 -7.473,0 -1.267,3.964 -4.18,0 6.859,-19.281 z m 12.936,-0.055 4.003,0 0,12.096 c 0,1.493 0.297,2.583 0.891,3.267 0.593,0.684 1.538,1.028 2.829,1.028 1.307,0 2.258,-0.341 2.858,-1.023 0.601,-0.68 0.898,-1.769 0.898,-3.272 l 0,-12.096 3.969,0 0,12.53 c 0,2.365 -0.663,4.178 -1.984,5.442 -1.321,1.266 -3.226,1.9 -5.715,1.9 -2.502,0 -4.42,-0.631 -5.751,-1.89 -1.331,-1.261 -1.998,-3.079 -1.998,-5.452 l 0,-12.53 z m 19.338,19.336 0,-19.281 3.97,0 0,15.719 9.41,0 0,3.562 -13.38,0 z m 15.686,0 0,-19.281 3.969,0 0,19.281 -3.969,0 z m 7.211,-5.956 3.917,0 c 0.147,1.054 0.58,1.835 1.294,2.349 0.717,0.51 1.748,0.765 3.103,0.765 1.151,0 2.018,-0.205 2.605,-0.617 0.584,-0.407 0.874,-1.014 0.874,-1.818 0,-1.172 -1.678,-2.136 -5.041,-2.905 -0.043,-0.01 -0.083,-0.017 -0.116,-0.027 -0.087,-0.017 -0.221,-0.049 -0.407,-0.094 -1.798,-0.393 -3.083,-0.83 -3.847,-1.324 -0.683,-0.432 -1.2,-1.022 -1.558,-1.759 -0.36,-0.736 -0.536,-1.603 -0.536,-2.611 0,-1.875 0.637,-3.314 1.911,-4.315 1.274,-0.996 3.116,-1.496 5.524,-1.496 2.252,0 4.013,0.53 5.281,1.595 1.271,1.067 1.942,2.565 2.011,4.505 l -3.812,0 c -0.071,-0.936 -0.427,-1.647 -1.071,-2.134 -0.647,-0.487 -1.568,-0.732 -2.762,-0.732 -1.041,0 -1.842,0.202 -2.406,0.607 -0.56,0.407 -0.843,0.982 -0.843,1.735 0,1.022 1.094,1.783 3.285,2.292 0.594,0.138 1.058,0.247 1.391,0.325 1.402,0.358 2.402,0.64 2.99,0.837 0.586,0.2 1.1,0.424 1.541,0.671 0.78,0.437 1.371,1.014 1.764,1.733 0.394,0.719 0.591,1.581 0.591,2.587 0,2.006 -0.677,3.561 -2.032,4.665 -1.351,1.104 -3.255,1.658 -5.717,1.658 -2.426,0 -4.331,-0.564 -5.708,-1.69 -1.381,-1.124 -2.122,-2.725 -2.226,-4.802 z m 22.765,5.956 0,-15.837 -5.722,0 0,-3.444 15.369,0 0,3.444 -5.681,0 0,15.837 -3.966,0 z m 18.151,-15.421 -2.673,8.209 5.351,0 -2.678,-8.209 z m -2.309,-3.86 4.584,0 6.951,19.281 -4.166,0 -1.308,-3.964 -7.472,0 -1.268,3.964 -4.18,0 6.859,-19.281 z"
             style="fill:#2c2c2b;stroke:none"
             inkscape:connector-curvature="0" />
        </g>
      </g>
    </g>
  </g>
</svg>
